<mxfile host="app.diagrams.net" modified="2023-04-17T20:37:08.225Z" agent="Mozilla/5.0 (Windows NT 10.0; Win64; x64) AppleWebKit/537.36 (KHTML, like Gecko) Chrome/112.0.0.0 Safari/537.36" etag="95uqrL5Esrxk5jrnRXu4" version="21.1.7" type="device">
  <diagram id="C5RBs43oDa-KdzZeNtuy" name="Page-1">
    <mxGraphModel dx="1290" dy="549" grid="1" gridSize="10" guides="1" tooltips="1" connect="1" arrows="1" fold="1" page="1" pageScale="1" pageWidth="827" pageHeight="1169" math="0" shadow="0">
      <root>
        <mxCell id="WIyWlLk6GJQsqaUBKTNV-0" />
        <mxCell id="WIyWlLk6GJQsqaUBKTNV-1" parent="WIyWlLk6GJQsqaUBKTNV-0" />
        <mxCell id="nEIJ1jHo1i7HSNUCzzt5-38" value="" style="edgeStyle=orthogonalEdgeStyle;rounded=0;orthogonalLoop=1;jettySize=auto;html=1;strokeWidth=1;endArrow=none;endFill=0;endSize=10;startArrow=block;startFill=0;startSize=10;entryX=0.5;entryY=0;entryDx=0;entryDy=0;exitX=0.75;exitY=1;exitDx=0;exitDy=0;" parent="WIyWlLk6GJQsqaUBKTNV-1" source="4MDabrElAX1H1jkeUHxm-6" target="4MDabrElAX1H1jkeUHxm-5" edge="1">
          <mxGeometry relative="1" as="geometry">
            <mxPoint x="660" y="760" as="targetPoint" />
            <mxPoint x="660" y="800.0000000000005" as="sourcePoint" />
          </mxGeometry>
        </mxCell>
        <mxCell id="nEIJ1jHo1i7HSNUCzzt5-39" value="" style="edgeStyle=orthogonalEdgeStyle;rounded=0;orthogonalLoop=1;jettySize=auto;html=1;strokeWidth=1;endArrow=none;endFill=0;endSize=10;entryX=0.5;entryY=0;entryDx=0;entryDy=0;startArrow=block;startFill=0;startSize=10;exitX=0.5;exitY=1;exitDx=0;exitDy=0;" parent="WIyWlLk6GJQsqaUBKTNV-1" source="4MDabrElAX1H1jkeUHxm-7" target="4MDabrElAX1H1jkeUHxm-8" edge="1">
          <mxGeometry relative="1" as="geometry">
            <mxPoint x="956" y="939" as="sourcePoint" />
            <mxPoint x="956" y="730" as="targetPoint" />
          </mxGeometry>
        </mxCell>
        <mxCell id="_tA2H1dWsyYYxqdJ7V0w-102" value="" style="edgeStyle=orthogonalEdgeStyle;rounded=0;orthogonalLoop=1;jettySize=auto;html=1;strokeWidth=1;endArrow=none;endFill=0;endSize=10;startArrow=block;startFill=0;startSize=10;entryX=0.5;entryY=0;entryDx=0;entryDy=0;exitX=0.25;exitY=1;exitDx=0;exitDy=0;" parent="WIyWlLk6GJQsqaUBKTNV-1" source="4MDabrElAX1H1jkeUHxm-6" target="4MDabrElAX1H1jkeUHxm-4" edge="1">
          <mxGeometry relative="1" as="geometry">
            <mxPoint x="370" y="849.29" as="sourcePoint" />
            <mxPoint x="220" y="849.2900000000004" as="targetPoint" />
            <Array as="points" />
          </mxGeometry>
        </mxCell>
        <mxCell id="_tA2H1dWsyYYxqdJ7V0w-107" value="" style="endArrow=diamondThin;endFill=0;endSize=24;html=1;rounded=0;exitX=0.5;exitY=0;exitDx=0;exitDy=0;entryX=1;entryY=0.5;entryDx=0;entryDy=0;" parent="WIyWlLk6GJQsqaUBKTNV-1" source="4MDabrElAX1H1jkeUHxm-3" target="4MDabrElAX1H1jkeUHxm-1" edge="1">
          <mxGeometry width="160" relative="1" as="geometry">
            <mxPoint x="910" y="308" as="sourcePoint" />
            <mxPoint x="610" y="223" as="targetPoint" />
            <Array as="points">
              <mxPoint x="680" y="230" />
            </Array>
          </mxGeometry>
        </mxCell>
        <mxCell id="_tA2H1dWsyYYxqdJ7V0w-108" value="" style="endArrow=diamondThin;endFill=0;endSize=24;html=1;rounded=0;exitX=0.5;exitY=0;exitDx=0;exitDy=0;entryX=0;entryY=0.5;entryDx=0;entryDy=0;" parent="WIyWlLk6GJQsqaUBKTNV-1" source="4MDabrElAX1H1jkeUHxm-0" target="4MDabrElAX1H1jkeUHxm-1" edge="1">
          <mxGeometry width="160" relative="1" as="geometry">
            <mxPoint x="-45" y="278" as="sourcePoint" />
            <mxPoint x="310" y="223" as="targetPoint" />
            <Array as="points">
              <mxPoint x="240" y="230" />
            </Array>
          </mxGeometry>
        </mxCell>
        <mxCell id="_tA2H1dWsyYYxqdJ7V0w-118" value="2" style="edgeLabel;html=1;align=center;verticalAlign=middle;resizable=0;points=[];" parent="_tA2H1dWsyYYxqdJ7V0w-108" vertex="1" connectable="0">
          <mxGeometry x="0.7845" y="1" relative="1" as="geometry">
            <mxPoint x="-151" y="81" as="offset" />
          </mxGeometry>
        </mxCell>
        <mxCell id="_tA2H1dWsyYYxqdJ7V0w-109" value="" style="endArrow=diamondThin;endFill=0;endSize=24;html=1;rounded=0;entryX=0.5;entryY=1;entryDx=0;entryDy=0;exitX=0.5;exitY=0;exitDx=0;exitDy=0;" parent="WIyWlLk6GJQsqaUBKTNV-1" source="4MDabrElAX1H1jkeUHxm-2" target="4MDabrElAX1H1jkeUHxm-1" edge="1">
          <mxGeometry width="160" relative="1" as="geometry">
            <mxPoint x="370" y="290" as="sourcePoint" />
            <mxPoint x="446" y="280" as="targetPoint" />
          </mxGeometry>
        </mxCell>
        <mxCell id="_tA2H1dWsyYYxqdJ7V0w-110" value="" style="endArrow=diamondThin;endFill=0;endSize=24;html=1;rounded=0;exitX=0;exitY=0.5;exitDx=0;exitDy=0;entryX=0.25;entryY=1;entryDx=0;entryDy=0;" parent="WIyWlLk6GJQsqaUBKTNV-1" source="4MDabrElAX1H1jkeUHxm-6" target="4MDabrElAX1H1jkeUHxm-0" edge="1">
          <mxGeometry width="160" relative="1" as="geometry">
            <mxPoint x="-30" y="572" as="sourcePoint" />
            <mxPoint x="-30" y="460" as="targetPoint" />
            <Array as="points">
              <mxPoint x="210" y="760" />
            </Array>
          </mxGeometry>
        </mxCell>
        <mxCell id="_tA2H1dWsyYYxqdJ7V0w-115" value="" style="endArrow=diamondThin;endFill=0;endSize=24;html=1;rounded=0;exitX=1;exitY=0.5;exitDx=0;exitDy=0;entryX=0.75;entryY=1;entryDx=0;entryDy=0;" parent="WIyWlLk6GJQsqaUBKTNV-1" source="4MDabrElAX1H1jkeUHxm-6" target="4MDabrElAX1H1jkeUHxm-3" edge="1">
          <mxGeometry width="160" relative="1" as="geometry">
            <mxPoint x="925" y="575" as="sourcePoint" />
            <mxPoint x="925" y="460" as="targetPoint" />
            <Array as="points">
              <mxPoint x="710" y="760" />
            </Array>
          </mxGeometry>
        </mxCell>
        <mxCell id="4MDabrElAX1H1jkeUHxm-0" value="Patte" style="rounded=0;whiteSpace=wrap;html=1;" parent="WIyWlLk6GJQsqaUBKTNV-1" vertex="1">
          <mxGeometry x="180" y="330" width="120" height="60" as="geometry" />
        </mxCell>
        <mxCell id="4MDabrElAX1H1jkeUHxm-1" value="Caterpullup" style="rounded=0;whiteSpace=wrap;html=1;" parent="WIyWlLk6GJQsqaUBKTNV-1" vertex="1">
          <mxGeometry x="400" y="200" width="120" height="60" as="geometry" />
        </mxCell>
        <mxCell id="4MDabrElAX1H1jkeUHxm-2" value="Timer" style="rounded=0;whiteSpace=wrap;html=1;" parent="WIyWlLk6GJQsqaUBKTNV-1" vertex="1">
          <mxGeometry x="400" y="330" width="120" height="60" as="geometry" />
        </mxCell>
        <mxCell id="4MDabrElAX1H1jkeUHxm-3" value="Corps" style="rounded=0;whiteSpace=wrap;html=1;" parent="WIyWlLk6GJQsqaUBKTNV-1" vertex="1">
          <mxGeometry x="620" y="330" width="120" height="60" as="geometry" />
        </mxCell>
        <mxCell id="4MDabrElAX1H1jkeUHxm-4" value="DXL_Patte" style="rounded=0;whiteSpace=wrap;html=1;" parent="WIyWlLk6GJQsqaUBKTNV-1" vertex="1">
          <mxGeometry x="180" y="860" width="120" height="60" as="geometry" />
        </mxCell>
        <mxCell id="4MDabrElAX1H1jkeUHxm-5" value="DXL_Corps" style="rounded=0;whiteSpace=wrap;html=1;" parent="WIyWlLk6GJQsqaUBKTNV-1" vertex="1">
          <mxGeometry x="620" y="860" width="120" height="60" as="geometry" />
        </mxCell>
        <mxCell id="4MDabrElAX1H1jkeUHxm-6" value="Moteur (abstract)" style="rounded=0;whiteSpace=wrap;html=1;" parent="WIyWlLk6GJQsqaUBKTNV-1" vertex="1">
          <mxGeometry x="400" y="730" width="120" height="60" as="geometry" />
        </mxCell>
        <mxCell id="4MDabrElAX1H1jkeUHxm-7" value="Electroaimant (abstract)" style="rounded=0;whiteSpace=wrap;html=1;" parent="WIyWlLk6GJQsqaUBKTNV-1" vertex="1">
          <mxGeometry x="400" y="490" width="120" height="60" as="geometry" />
        </mxCell>
        <mxCell id="4MDabrElAX1H1jkeUHxm-8" value="ElectroCPU" style="rounded=0;whiteSpace=wrap;html=1;" parent="WIyWlLk6GJQsqaUBKTNV-1" vertex="1">
          <mxGeometry x="400" y="615" width="120" height="60" as="geometry" />
        </mxCell>
        <mxCell id="4MDabrElAX1H1jkeUHxm-9" value="" style="endArrow=diamondThin;endFill=0;endSize=24;html=1;rounded=0;entryX=0.75;entryY=1;entryDx=0;entryDy=0;exitX=0.25;exitY=0;exitDx=0;exitDy=0;" parent="WIyWlLk6GJQsqaUBKTNV-1" source="4MDabrElAX1H1jkeUHxm-7" target="4MDabrElAX1H1jkeUHxm-0" edge="1">
          <mxGeometry width="160" relative="1" as="geometry">
            <mxPoint x="430" y="430" as="sourcePoint" />
            <mxPoint x="220" y="400" as="targetPoint" />
            <Array as="points">
              <mxPoint x="430" y="450" />
              <mxPoint x="270" y="450" />
            </Array>
          </mxGeometry>
        </mxCell>
        <mxCell id="4MDabrElAX1H1jkeUHxm-10" value="" style="endArrow=diamondThin;endFill=0;endSize=24;html=1;rounded=0;entryX=0.25;entryY=1;entryDx=0;entryDy=0;exitX=0.75;exitY=0;exitDx=0;exitDy=0;" parent="WIyWlLk6GJQsqaUBKTNV-1" source="4MDabrElAX1H1jkeUHxm-7" target="4MDabrElAX1H1jkeUHxm-3" edge="1">
          <mxGeometry width="160" relative="1" as="geometry">
            <mxPoint x="490" y="420" as="sourcePoint" />
            <mxPoint x="730" y="400" as="targetPoint" />
            <Array as="points">
              <mxPoint x="490" y="450" />
              <mxPoint x="650" y="450" />
            </Array>
          </mxGeometry>
        </mxCell>
      </root>
    </mxGraphModel>
  </diagram>
</mxfile>
